<svg xmlns="http://www.w3.org/2000/svg" xmlns:xlink="http://www.w3.org/1999/xlink" width="144.621" height="51.626" viewBox="0 0 144.621 51.626">
  <defs>
    <clipPath id="clip-path">
      <rect id="Rectangle_1410" data-name="Rectangle 1410" width="144.621" height="51.626" fill="none"/>
    </clipPath>
  </defs>
  <g id="Group_5142" data-name="Group 5142" transform="translate(-603.427 -352.101)">
    <g id="Group_5141" data-name="Group 5141" transform="translate(603.427 352.101)">
      <g id="Group_5140" data-name="Group 5140" transform="translate(0 0)" clip-path="url(#clip-path)">
        <path id="Path_4795" data-name="Path 4795" d="M0,23.132c0-5.684,3.267-9.627,7.956-9.627a5.661,5.661,0,0,1,5.08,2.595h.107V6.826h5.791v25.4H13.392v-2.45h-.071A5.987,5.987,0,0,1,7.956,32.8C3.3,32.8,0,29.208,0,23.132m13.285,0c0-3.054-1.241-5.255-3.765-5.255-2.31,0-3.658,2.13-3.658,5.187,0,3.161,1.348,5.148,3.587,5.148,2.417,0,3.836-2.094,3.836-5.08" transform="translate(0 13.393)" fill="#1c447b"/>
        <path id="Path_4796" data-name="Path 4796" d="M6.755,18.723a9.321,9.321,0,0,1,9.736-9.63,9.27,9.27,0,0,1,9.7,9.63,9.269,9.269,0,0,1-9.7,9.627,9.32,9.32,0,0,1-9.736-9.627m13.572,0c0-3.306-1.351-5.542-3.871-5.542s-3.839,2.236-3.839,5.542,1.315,5.5,3.839,5.5,3.871-2.2,3.871-5.5" transform="translate(13.254 17.841)" fill="#1c447b"/>
        <path id="Path_4797" data-name="Path 4797" d="M13.68,9.614h5.578V12.1h.107a6.374,6.374,0,0,1,5.613-3.021c3.978,0,6.324,2.844,6.324,6.893V27.8H25.511V17.147c0-1.916-.96-3.235-2.844-3.235-1.916,0-3.2,1.6-3.2,3.839V27.8H13.68Z" transform="translate(26.841 17.817)" fill="#1c447b"/>
        <path id="Path_4798" data-name="Path 4798" d="M20.219,9.612h5.545v2.207h.1a6.618,6.618,0,0,1,5.509-2.737c4.828,0,7.778,4.156,7.778,9.627,0,5.9-3.161,9.662-7.924,9.662a6.055,6.055,0,0,1-5.151-2.453h-.068v7.888H20.219Zm13.075,9.31c0-3.128-1.173-5.187-3.658-5.187-2.524,0-3.8,2.239-3.8,5.187s1.422,4.973,3.91,4.973c2.2,0,3.552-1.884,3.552-4.973" transform="translate(39.671 17.819)" fill="#1c447b"/>
        <path id="Path_4799" data-name="Path 4799" d="M26.688,22.7c0-4.014,3.2-5.219,6.961-5.717,3.409-.43,4.618-.782,4.618-2.026,0-1.173-.746-1.955-2.488-1.955-1.845,0-2.767.818-2.947,2.346H27.5c.142-3.377,2.737-6.253,8.246-6.253,2.731,0,4.576.5,5.892,1.493a6.018,6.018,0,0,1,2.31,5.187v9.165c0,1.457.142,2.275.64,2.592v.249H38.978a5.043,5.043,0,0,1-.6-2.023H38.3c-1.066,1.525-2.666,2.488-5.4,2.488-3.623,0-6.214-1.958-6.214-5.545m11.724-1.419V19.114a14.387,14.387,0,0,1-2.983.957c-2.242.5-3.166,1.066-3.166,2.453,0,1.454,1.069,2.026,2.488,2.026,2.165,0,3.661-1.318,3.661-3.27" transform="translate(52.364 17.841)" fill="#1c447b"/>
        <path id="Path_4800" data-name="Path 4800" d="M38.78,29.919h-.071v2.307H33.167V6.827h5.791V16.1h.107a5.948,5.948,0,0,1,5.187-2.595c4.725,0,7.781,4.156,7.781,9.627,0,6.04-3.057,9.662-7.746,9.662a6.115,6.115,0,0,1-5.507-2.876m7.39-6.822c0-3.128-1.244-5.187-3.587-5.187-2.559,0-3.8,2.239-3.8,5.222,0,3.018,1.493,5.08,3.874,5.08,2.272,0,3.516-1.955,3.516-5.116" transform="translate(65.077 13.395)" fill="#1c447b"/>
        <rect id="Rectangle_1409" data-name="Rectangle 1409" width="5.862" height="25.4" transform="translate(118.22 20.219)" fill="#1c447b"/>
        <path id="Path_4801" data-name="Path 4801" d="M42.263,18.723A9.321,9.321,0,0,1,52,9.093a9.27,9.27,0,0,1,9.7,9.63A9.269,9.269,0,0,1,52,28.35a9.32,9.32,0,0,1-9.736-9.627m13.572,0c0-3.306-1.351-5.542-3.871-5.542s-3.839,2.236-3.839,5.542,1.315,5.5,3.839,5.5,3.871-2.2,3.871-5.5" transform="translate(82.924 17.841)" fill="#1c447b"/>
        <path id="Path_4802" data-name="Path 4802" d="M28.069,14.541a10.8,10.8,0,0,0-1.268.6,6.524,6.524,0,0,0-.687.388,10.036,10.036,0,0,0-1.851,1.6,6.54,6.54,0,0,0-1.428,2.61v.018a6.975,6.975,0,0,0-.193,2.361c-5.779-5.975-5.918-13.777-2-18.46C25.986-2.725,33.374.305,34.659,4.71,35.8,8.584,34.307,12,28.069,14.541" transform="translate(35.243 -0.001)" fill="#c0051d"/>
        <path id="Path_4803" data-name="Path 4803" d="M23.494,1.066,24.549,3.2l2.361.344L25.2,5.213l.4,2.352L23.494,6.454,21.382,7.565l.4-2.352L20.079,3.548,22.44,3.2Z" transform="translate(39.396 2.09)" fill="#ffc400"/>
      </g>
    </g>
  </g>
</svg>
